/* XPM */
static char * bullet_hilite3_xpm[] = {
"14 14 2 1",
" 	c None",
".	c #DEDEDE",
"              ",
"              ",
"              ",
"              ",
"          .   ",
"           .  ",
"            . ",
"             .",
"            . ",
"           .  ",
"          .   ",
"              ",
"              ",
"              "};
