/* XPM */
static char * close_unfocus1_xpm[] = {
"24 24 3 1",
" 	c None",
".	c #202020",
"+	c #707070",
"........................",
"........................",
"........................",
"........................",
"........................",
"........................",
"........................",
".......+........+.......",
"........+......+........",
".........+....+.........",
"..........+..+..........",
"...........++...........",
"...........++...........",
"..........+..+..........",
".........+....+.........",
"........+......+........",
".......+........+.......",
"........................",
"........................",
"........................",
"........................",
"........................",
"........................",
"........................"};
