/* XPM */
static char * Untitled_xpm[] = {
"1 23 2 1",
" 	c #202020",
".	c #B1222B",
" ",
" ",
" ",
" ",
" ",
" ",
" ",
" ",
" ",
" ",
" ",
" ",
" ",
" ",
" ",
" ",
" ",
" ",
" ",
" ",
" ",
".",
"."};
