/* XPM */
static char * stuck0_xpm[] = {
"24 24 5 1",
" 	c None",
".	c #202020",
"+	c #313131",
"@	c #161616",
"#	c #D2D2D2",
"........................",
"........................",
"........................",
"........................",
"........................",
"........................",
"........................",
".......++++++++++.......",
".......+@@@@@@@@+.......",
".......+@@@@@@@@+.......",
".......+@@@@@@@#+.......",
".......+@@@@@@#@+.......",
".......+@#@@@#@@+.......",
".......+@@#@#@@@+.......",
".......+@@@#@@@@+.......",
".......+@@@@@@@@+.......",
".......++++++++++.......",
"........................",
"........................",
"........................",
"........................",
"........................",
"........................",
"........................"};
