/* XPM */
static char * toolbar_xpm[] = {
"1 25 3 1",
" 	c None",
".	c #202020",
"+	c #313131",
".",
".",
".",
".",
".",
".",
".",
".",
".",
".",
".",
".",
".",
".",
".",
".",
".",
".",
".",
".",
".",
".",
".",
".",
"+"};
